<svg id="Слой_1" data-name="Слой 1" xmlns="http://www.w3.org/2000/svg" viewBox="0 0 591 497">
  <defs>
    <style>
      .cls-1, .cls-12 {
        fill: #f9dac5;
      }

      .cls-2 {
        fill: #e0aa86;
      }

      .cls-10, .cls-3 {
        fill: #f9700b;
      }

      .cls-13, .cls-4 {
        fill: #f9911e;
      }

      .cls-5 {
        fill: #f9a064;
      }

      .cls-11, .cls-14, .cls-15, .cls-6 {
        fill: #313131;
      }

      .cls-7, .cls-8 {
        fill: none;
      }

      .cls-10, .cls-11, .cls-12, .cls-13, .cls-14, .cls-15, .cls-7, .cls-8 {
        stroke: #313131;
        stroke-miterlimit: 10;
      }

      .cls-11, .cls-7 {
        stroke-width: 10px;
      }

      .cls-10, .cls-12, .cls-13, .cls-15, .cls-8 {
        stroke-width: 6px;
      }

      .cls-9 {
        fill: #edc3a6;
      }

      .cls-11, .cls-15 {
        opacity: 0.48;
      }

      .cls-14 {
        stroke-width: 0.75px;
      }
    </style>
  </defs>
  <title>Logotype3</title>
  <polygon class="cls-1" points="367.957 467 251.277 467 135 405 462 405 367.957 467"/>
  <polygon class="cls-2" points="501 358 108 358 108 378.907 133.24 407 463.754 407 501 358"/>
  <rect class="cls-3" x="92" y="320" width="414" height="37" rx="5.57447"/>
  <path class="cls-4" d="M716,558.42374q0-22.71187-.0001-45.42374H1168v45.81032c0,5.74494-6.41733,18.28044-17.72268,18.72-71.6675,2.78656-339.76593,3.31612-414.70682,1.07006C723.11911,578.2272,716,564.69869,716,558.42374Z" transform="translate(-643 -250)"/>
  <rect class="cls-5" x="68" y="233" width="463" height="30"/>
  <rect class="cls-1" x="71" y="176" width="458" height="57"/>
  <polygon class="cls-3" points="518 176 82 176 82 146.34 103.932 135 497.327 135 518 146.728 518 176"/>
  <polygon class="cls-1" points="501 135 97 135 97 114.068 114 105 487.915 105 501 113.012 501 135"/>
  <polygon class="cls-2" points="453.458 60 141.442 60 116 88.29 116 105 484 105 484 89.749 453.458 60"/>
  <path class="cls-5" d="M1073,309H814c.01353-3.90072.02415-9.70094.00006-16.76774C813.96535,282.0418,880.40188,260,884.47007,260h127.22957c2.92766,0,61.327,23.39251,61.30035,31.97163C1072.97735,299.2072,1072.9876,305.10885,1073,309Z" transform="translate(-643 -250)"/>
  <path class="cls-6" d="M942.5,260a223.70655,223.70655,0,0,1,88.15576,17.98749,230.73671,230.73671,0,0,1,121.35669,121.35675,225.01647,225.01647,0,0,1,0,176.31152,230.73671,230.73671,0,0,1-121.35669,121.35675,225.01716,225.01716,0,0,1-176.31152,0A230.73655,230.73655,0,0,1,732.98749,575.65576a225.01716,225.01716,0,0,1,0-176.31152A230.73655,230.73655,0,0,1,854.34424,277.98749,223.70655,223.70655,0,0,1,942.5,260m0-10C812.2113,250,705,357.21133,705,487.5S812.2113,725,942.5,725,1180,617.7887,1180,487.5,1072.7887,250,942.5,250Z" transform="translate(-643 -250)"/>
  <path class="cls-7" d="M1088,306l-290-1" transform="translate(-643 -250)"/>
  <path class="cls-6" d="M106,101H355a3,3,0,0,1,3,3v3a3,3,0,0,1-3,3H106a0,0,0,0,1,0,0v-9a0,0,0,0,1,0,0Z"/>
  <path class="cls-6" d="M371,101H492a0,0,0,0,1,0,0v9a0,0,0,0,1,0,0H371a3,3,0,0,1-3-3v-3A3,3,0,0,1,371,101Z"/>
  <path class="cls-6" d="M89,131H229a3,3,0,0,1,3,3v3a3,3,0,0,1-3,3H89a0,0,0,0,1,0,0v-9A0,0,0,0,1,89,131Z"/>
  <path class="cls-6" d="M261,131H509a0,0,0,0,1,0,0v9a0,0,0,0,1,0,0H261a3,3,0,0,1-3-3v-3A3,3,0,0,1,261,131Z"/>
  <path class="cls-6" d="M76,172H397a3,3,0,0,1,3,3v3a3,3,0,0,1-3,3H76a0,0,0,0,1,0,0v-9A0,0,0,0,1,76,172Z"/>
  <path class="cls-6" d="M424,172h97a0,0,0,0,1,0,0v9a0,0,0,0,1,0,0H424a3,3,0,0,1-3-3v-3A3,3,0,0,1,424,172Z"/>
  <path class="cls-6" d="M62,229H229a3,3,0,0,1,3,3v3a3,3,0,0,1-3,3H62a0,0,0,0,1,0,0v-9A0,0,0,0,1,62,229Z"/>
  <rect class="cls-6" x="247" y="229" width="11" height="9" rx="3"/>
  <rect class="cls-6" x="271" y="229" width="262" height="9" rx="3"/>
  <path class="cls-6" d="M68,258H358a3,3,0,0,1,3,3v3a3,3,0,0,1-3,3H68a0,0,0,0,1,0,0v-9A0,0,0,0,1,68,258Z"/>
  <path class="cls-6" d="M377,258H529a0,0,0,0,1,0,0v9a0,0,0,0,1,0,0H377a3,3,0,0,1-3-3v-3A3,3,0,0,1,377,258Z"/>
  <path class="cls-6" d="M83,325H187a3,3,0,0,1,3,3v3a3,3,0,0,1-3,3H83a0,0,0,0,1,0,0v-9a0,0,0,0,1,0,0Z"/>
  <path class="cls-6" d="M311,325H514a0,0,0,0,1,0,0v9a0,0,0,0,1,0,0H311a3,3,0,0,1-3-3v-3A3,3,0,0,1,311,325Z"/>
  <ellipse class="cls-8" cx="246.5" cy="324.5" rx="47.5" ry="24.5"/>
  <path class="cls-6" d="M102,357H494a3,3,0,0,1,3,3v3a3,3,0,0,1-3,3H102a0,0,0,0,1,0,0v-9A0,0,0,0,1,102,357Z"/>
  <path class="cls-6" d="M139,403H346a3,3,0,0,1,3,3v3a3,3,0,0,1-3,3H139a0,0,0,0,1,0,0v-9a0,0,0,0,1,0,0Z"/>
  <path class="cls-6" d="M388,403h71a0,0,0,0,1,0,0v9a0,0,0,0,1,0,0H388a3,3,0,0,1-3-3v-3A3,3,0,0,1,388,403Z"/>
  <ellipse class="cls-9" cx="246.5" cy="324" rx="44.5" ry="22"/>
  <ellipse class="cls-10" cx="246.69118" cy="324.5" rx="20.69118" ry="10.5"/>
  <path class="cls-7" d="M946,259" transform="translate(-643 -250)"/>
  <path class="cls-7" d="M801,334" transform="translate(-643 -250)"/>
  <path class="cls-7" d="M1542,479" transform="translate(-643 -250)"/>
  <path class="cls-11" d="M958,259.63573A216.57161,216.57161,0,0,0,838.89612,284.8829c-58.28219,31.3195-86.15193,79.99889-92.63634,91.89971-10.15184,18.63165-42.92366,84.83173-24.577,167.64122,17.20945,77.67635,71.51943,134.41345,129.50184,158.55224,47.33285,19.70525,98.69769,18.34679,99.25323,15.1483.29188-1.68063-13.15813-5.517-17.96011-7.0692C885.81548,695.97164,808.86232,622.81075,792.578,535.33485,773.33789,431.98133,838.98082,309.67379,958,259.63573Z" transform="translate(-643 -250)"/>
  <path class="cls-12" d="M733,329.5" transform="translate(-643 -250)"/>
  <g>
    <ellipse class="cls-13" cx="548.5" cy="449.5" rx="39.5" ry="44.5"/>
    <circle class="cls-14" cx="536.5" cy="425.5" r="4"/>
    <circle class="cls-14" cx="528.5" cy="445.5" r="4"/>
    <circle class="cls-14" cx="550.5" cy="455.5" r="4"/>
    <path class="cls-15" d="M1189,656.00828c-3.07007-2.72746-38.43091,17.47024-37,45.52783,1.25452,24.59951,30.11609,42.01689,32,40.35422.48828-.431-.63818-2.31815-2-5.17362a98.25363,98.25363,0,0,1-8-42.42366C1175.12732,670.76635,1191.22388,657.984,1189,656.00828Z" transform="translate(-643 -250)"/>
  </g>
  <g>
    <path class="cls-12" d="M725,309.5c0,24.57667-17.68475,44.5-39.5,44.5S646,334.07667,646,309.5,663.68475,265,685.5,265,725,284.92333,725,309.5" transform="translate(-643 -250)"/>
    <path class="cls-15" d="M685,267c-3.554-3.14694-36.63623,12.5813-38,40-1.45294,29.21082,34.30518,47.34583,37,45,1.98108-1.72452-14.246-14.22235-16-36C665.79724,288.6507,688.29315,269.91592,685,267Z" transform="translate(-643 -250)"/>
  </g>
</svg>
